<svg id="Layer_1" data-name="Layer 1" xmlns="http://www.w3.org/2000/svg" xmlns:xlink="http://www.w3.org/1999/xlink" viewBox="0 0 200 200"><defs><style>.cls-1{fill:url(#linear-gradient);}</style><linearGradient id="linear-gradient" x1="100" y1="212.05" x2="100" y2="50.34" gradientUnits="userSpaceOnUse"><stop offset="0" stop-color="#ff0"/><stop offset="0.29" stop-color="#fcee21"/><stop offset="1" stop-color="#fbb03b"/></linearGradient></defs><path class="cls-1" d="M62.94,157.65a2.94,2.94,0,1,0,2.94,2.94A2.94,2.94,0,0,0,62.94,157.65Zm-9.38-53.49a3,3,0,0,0-2.38-1.22H39.41a2.94,2.94,0,0,0,0,5.88H47.1L42.51,122.6a2.93,2.93,0,0,0,1.86,3.72,2.94,2.94,0,0,0,3.72-1.86L54,106.81A2.92,2.92,0,0,0,53.56,104.16Zm35.3,0a3,3,0,0,0-2.39-1.22H74.71a2.94,2.94,0,1,0,0,5.88h7.68L77.8,122.6a2.94,2.94,0,0,0,1.86,3.72,3,3,0,0,0,.93.15,2.94,2.94,0,0,0,2.79-2l5.88-17.65A3,3,0,0,0,88.86,104.16Zm35.29,0a3,3,0,0,0-2.39-1.22H110a2.94,2.94,0,0,0,0,5.88h7.68l-4.59,13.78a2.94,2.94,0,0,0,1.86,3.72,3,3,0,0,0,.93.15,2.94,2.94,0,0,0,2.79-2l5.88-17.65A3,3,0,0,0,124.15,104.16ZM98.24,157.65H74.71a2.94,2.94,0,0,0,0,5.88H98.24a2.94,2.94,0,1,0,0-5.88Zm62.35-84.12A14.7,14.7,0,0,0,151.76,100v33.24H136.47V80.59a55.88,55.88,0,0,0-111.76,0v85.88a8.83,8.83,0,0,0,8.82,8.82h94.12a8.83,8.83,0,0,0,8.82-8.82v-8.82H154.7a14.73,14.73,0,0,0,14.71-14.71V100a14.7,14.7,0,0,0-8.82-26.46Zm-130,22.65H60v37H30.59Zm76.47,73.23H54.12V151.76h52.94Zm23.53-14.71v11.77a2.94,2.94,0,0,1-2.94,2.94H112.94V148.82a2.94,2.94,0,0,0-2.94-2.94H51.18a2.94,2.94,0,0,0-2.94,2.94v20.59H33.53a2.94,2.94,0,0,1-2.94-2.94V139.12h100ZM65.88,133.23v-37H95.29v37Zm64.71,0H101.18v-37h29.41Zm0-42.94h-100v-9.7a50,50,0,0,1,100,0Zm21.17,61.47H136.47V139.12h15.29Zm11.77-8.82a8.85,8.85,0,0,1-5.88,8.32V114.71h5.88Zm0-34.12h-5.88v-6.18a14.56,14.56,0,0,0,5.88,0ZM165,95.88a8.83,8.83,0,1,1,4.41-7.64A8.85,8.85,0,0,1,165,95.88ZM80.59,36.47A44.17,44.17,0,0,0,36.47,80.59a2.94,2.94,0,0,0,2.94,2.94h82.35a3,3,0,0,0,2.95-2.94A44.17,44.17,0,0,0,80.59,36.47ZM68.82,77.65H42.47a38.23,38.23,0,0,1,76.24,0ZM80.59,48.24a2.93,2.93,0,0,0-2.94,2.94V62.94a2.94,2.94,0,0,0,5.88,0V51.18A2.94,2.94,0,0,0,80.59,48.24ZM70.19,66l-8.32-8.32a2.94,2.94,0,0,0-4.16,4.16L66,70.19A2.94,2.94,0,0,0,70.19,66Zm33.27-8.32a2.93,2.93,0,0,0-4.15,0L91,66a2.94,2.94,0,0,0,4.16,4.16l8.31-8.32A2.94,2.94,0,0,0,103.46,57.71Z"/></svg>