<svg id="Layer_1" data-name="Layer 1" xmlns="http://www.w3.org/2000/svg" xmlns:xlink="http://www.w3.org/1999/xlink" viewBox="0 0 200 200"><defs><style>.cls-1{fill:url(#linear-gradient);}.cls-2{fill:url(#linear-gradient-2);}.cls-3{fill:url(#linear-gradient-3);}</style><linearGradient id="linear-gradient" x1="91.52" y1="188.1" x2="89.28" y2="27.36" gradientUnits="userSpaceOnUse"><stop offset="0" stop-color="#ff0"/><stop offset="0.29" stop-color="#fcee21"/><stop offset="1" stop-color="#fbb03b"/></linearGradient><linearGradient id="linear-gradient-2" x1="94.99" y1="188.06" x2="92.76" y2="27.31" xlink:href="#linear-gradient"/><linearGradient id="linear-gradient-3" x1="168.23" y1="187.04" x2="166" y2="26.29" xlink:href="#linear-gradient"/></defs><g id="dfNVHj"><path class="cls-1" d="M85.12,55.13a33.07,33.07,0,0,0-3.75.4,67.23,67.23,0,0,1-11.87,0A1.75,1.75,0,0,1,68,54.35a7.94,7.94,0,0,1-.72-2.91c0-1.06.35-1.66,1.39-1.77,2.61-.27,5.21-.27,7.52,1.24a2.22,2.22,0,0,0,2.13.14,54.36,54.36,0,0,0,6.11-2.8c5.22-2.63,10.28-5.57,15.39-8.41a1.37,1.37,0,0,0,.78-1.4c0-1.43,0-2.86,0-4.29a9.71,9.71,0,0,1,1-4.12,7.37,7.37,0,0,1,8.56-4.3,10.85,10.85,0,0,1,5,2.43,5,5,0,0,1,1.88,5.21,25.44,25.44,0,0,1-5.21,11.19,1.14,1.14,0,0,1-1,.42c-1,0-2.08,0-3.11,0-.68,0-.92.21-.87.9a13.28,13.28,0,0,0,.61,3.45c2.16,6.19,2.41,12.59,2.25,19q-.21,8.33-.36,16.66c0,.6-.14.89-.81.89-.91,0-1.81.12-2.72.12s-1,.13-.68,1a16.67,16.67,0,0,0,4,5.59c3.63,3.81,7.52,7.36,11.07,11.25a11.44,11.44,0,0,1,3.24,7.12,13,13,0,0,0,2.57,6.24,1.8,1.8,0,0,0,1.47.8,2.54,2.54,0,0,1,2.77,2.24c1,3.66,2.46,7.18,3.77,10.75.32.89.7,1,1.56.7a70.54,70.54,0,0,1,7.54-2.31,12.49,12.49,0,0,1,2.11-.31,2.16,2.16,0,0,1,2.47,1.47,2,2,0,0,1-.66,2.68,97.28,97.28,0,0,1-11.5,8.84,5,5,0,0,1-5,.52,3.2,3.2,0,0,1-1.79-1.69,10.18,10.18,0,0,1-.81-2.08,8.78,8.78,0,0,0-2.31-4c-2.11-2.46-4.17-5-6.32-7.42a12.16,12.16,0,0,1-3-6.52c-.31-2.29-.8-4.54-1-6.85a1.25,1.25,0,0,0-.6-1q-5.93-4-11.82-7.93c-.45-.31-.65-.2-.89.24-.41.77-.91,1.5-1.32,2.27-.28.56-.52.59-1,.19-2.38-1.92-4.8-3.78-7.16-5.71a1,1,0,0,0-1.51,0c-2.16,1.57-4.36,3.06-6.52,4.62a1,1,0,0,1-1.31,0c-.5-.35-1.1-.58-1.58-1a1.61,1.61,0,0,0-2.35.12C76.71,108,74,110,71.37,112.06c-3,2.33-6.21,2.33-9.57,1a18.28,18.28,0,0,1-6.72-4.56c-2.64-2.78-5.3-5.54-7.93-8.33a1.77,1.77,0,0,0-1.53-.61c-3.37.17-6.75.31-10.12.41-.85,0-1.79.16-2.24-.93A2.8,2.8,0,0,1,33.71,96a7.22,7.22,0,0,1,3-2,27.39,27.39,0,0,1,7.71-1.51A36.12,36.12,0,0,0,50,91.6c3-.8,4.62-.08,5.3,3a3.69,3.69,0,0,0,3.25,3.13c.75.17,1.48.47,2.23.71a6.68,6.68,0,0,1,4,3.16c0,.09.11.17.16.25,1.15,1.69,1.77,1.78,3.19.32s2.73-3,4.12-4.41c.41-.43.25-.69-.09-1C71,95.38,71,95.38,72.4,94.23c3-2.44,6.08-4.77,9-7.36a8.85,8.85,0,0,0,2.49-3.54c.62-1.68,1.47-3.19,3.4-3.73.65-.17,1-.8,1.34-1.36a34.93,34.93,0,0,0,2.33-4.71,9.84,9.84,0,0,0,.33-6.68A39.3,39.3,0,0,0,89.5,61.9c-.44-1-.73-1.09-1.73-.6a7.42,7.42,0,0,0-3.39,3.5,34.11,34.11,0,0,0-2.49,8.38,19.86,19.86,0,0,1-1.27,4.19,4.79,4.79,0,0,1-3.78,2.88,14,14,0,0,1-4.08.1c-1.73-.23-2.35-1.13-2-2.84a6.82,6.82,0,0,1,2.12-4,10.24,10.24,0,0,0,3.26-6.45,12.84,12.84,0,0,1,5.3-8.65c1.08-.79,2.08-1.66,3.11-2.52C84.74,55.72,85.07,55.58,85.12,55.13Z"/><path class="cls-2" d="M105.88,174.44c-24.29-.39-44.87-9.31-61.49-27.08A83.13,83.13,0,0,1,24.13,72c.24-1,.21-.95,1.11-.39a3.2,3.2,0,0,1,1.52,3.49A74.49,74.49,0,0,0,26,87q.91,31.22,23.26,53A73.58,73.58,0,0,0,94,161c20,2.11,38.16-3.15,54.26-15.26,1.56-1.17,3.05-2.43,4.53-3.7A.87.87,0,0,1,154,142a88.43,88.43,0,0,0,11.6,6.77c.58.28.62.47.14.94-12.14,11.58-26.15,19.67-42.73,23A87.22,87.22,0,0,1,105.88,174.44Z"/><path class="cls-3" d="M167.3,143.06a10.64,10.64,0,0,1-10.36-10.75c0-4.55,4.47-10.52,10.56-10.24s10.6,4.82,10.5,10.79A10.62,10.62,0,0,1,167.3,143.06Z"/></g></svg>