<svg id="Layer_1" data-name="Layer 1" xmlns="http://www.w3.org/2000/svg" xmlns:xlink="http://www.w3.org/1999/xlink" viewBox="0 0 200 200"><defs><style>.cls-1{fill:url(#linear-gradient);}.cls-2{fill:url(#linear-gradient-2);}.cls-3{fill:url(#linear-gradient-3);}</style><linearGradient id="linear-gradient" x1="109.47" y1="180.85" x2="90.5" y2="18.99" gradientUnits="userSpaceOnUse"><stop offset="0" stop-color="#ff0"/><stop offset="0.29" stop-color="#fcee21"/><stop offset="1" stop-color="#fbb03b"/></linearGradient><linearGradient id="linear-gradient-2" x1="83.91" y1="183.85" x2="64.94" y2="21.99" xlink:href="#linear-gradient"/><linearGradient id="linear-gradient-3" x1="135.36" y1="177.82" x2="116.39" y2="15.96" xlink:href="#linear-gradient"/></defs><g id="J91s9N"><path class="cls-1" d="M144,157.16c-3.39-.14-6.79-.27-10.19-.44a1.39,1.39,0,0,0-1.51.87c-3,5.84-6.07,11.66-9.12,17.47-1.4,2.65-3.12,3.11-5.64,1.52q-8.21-5.19-16.39-10.42a1.83,1.83,0,0,0-2.29,0c-5.33,3.43-10.69,6.82-16,10.22l-.74.46a3.27,3.27,0,0,1-5-1.38q-2.47-4.68-4.91-9.37c-1.44-2.76-2.91-5.5-4.3-8.28a1.77,1.77,0,0,0-1.9-1.11c-6.2.3-12.42.54-18.63.79-.52,0-1,0-1.55,0a3.09,3.09,0,0,1-3.37-3.4c.08-3.2.2-6.4.33-9.61q.21-5.39.49-10.77a1.5,1.5,0,0,0-1-1.59q-8.79-4.56-17.56-9.17c-2.43-1.27-2.94-3-1.48-5.33q5.3-8.39,10.63-16.72a1.44,1.44,0,0,0,0-1.82C30.43,93.75,27,88.33,23.58,82.92c-.16-.25-.32-.49-.47-.74-1.26-2.08-.75-4,1.4-5.13q7.35-3.85,14.72-7.68c1-.53,2-1.09,3-1.56a1.51,1.51,0,0,0,1-1.69c-.29-6.21-.54-12.42-.81-18.63,0-.42,0-.84,0-1.26,0-2.6,1.2-3.88,3.79-3.78,6.37.24,12.75.48,19.12.83a2.57,2.57,0,0,0,2.85-1.63C70.93,36,73.88,30.5,76.8,24.94c1.39-2.65,3.09-3.11,5.63-1.51Q90.79,28.67,99.1,34a1.43,1.43,0,0,0,1.82,0c5.39-3.46,10.81-6.88,16.23-10.31.3-.19.59-.39.9-.56a3.24,3.24,0,0,1,4.85,1.38c1.78,3.34,3.52,6.7,5.28,10.05,1.4,2.67,2.81,5.33,4.18,8a1.18,1.18,0,0,0,1.28.75c6.54-.3,13.07-.56,19.61-.84l.77,0A3.21,3.21,0,0,1,157.64,46c-.18,5-.41,10.09-.62,15.14-.07,1.71-.12,3.43-.24,5.14a1.32,1.32,0,0,0,.84,1.43c5.72,3,11.42,6,17.12,9l.6.31c2.35,1.28,2.84,3.07,1.44,5.32q-2.66,4.24-5.35,8.45c-1.78,2.82-3.55,5.65-5.37,8.44a1.3,1.3,0,0,0,0,1.65q5.23,8.17,10.42,16.39c.18.27.35.54.51.82a3.25,3.25,0,0,1-1.38,4.84c-3.41,1.81-6.83,3.58-10.24,5.37-2.49,1.3-5,2.64-7.5,3.89a1.75,1.75,0,0,0-1.11,1.9c.31,6.24.56,12.48.83,18.72,0,.52,0,1,0,1.56a3.13,3.13,0,0,1-3.45,3.24c-3.39-.1-6.79-.24-10.19-.36ZM48,75.32A23.2,23.2,0,1,0,71.17,52.23,23.21,23.21,0,0,0,48,75.32Zm104,46.27a23.2,23.2,0,1,0-23.15,23.19A23.19,23.19,0,0,0,152,121.59ZM76.37,147.71c.38-.08.46-.43.62-.69q5.24-8.58,10.45-17.17Q108.05,96,128.69,62.07c.43-.72.3-1-.38-1.38q-3.94-2.31-7.8-4.75c-.71-.45-1-.3-1.39.38Q106.9,76.49,94.61,96.64q-13.51,22.2-27,44.38c-.47.77-.48,1.13.37,1.62,2.61,1.5,5.16,3.1,7.73,4.67Z"/><path class="cls-2" d="M59.08,75.49A12.12,12.12,0,1,1,71.24,87.54,12.11,12.11,0,0,1,59.08,75.49Z"/><path class="cls-3" d="M140.88,121.61a12.11,12.11,0,1,1-12.1-12.09A12.07,12.07,0,0,1,140.88,121.61Z"/></g></svg>