<svg id="Layer_1" data-name="Layer 1" xmlns="http://www.w3.org/2000/svg" xmlns:xlink="http://www.w3.org/1999/xlink" viewBox="0 0 200 200"><defs><style>.cls-1{fill:url(#linear-gradient);}.cls-2{fill:url(#linear-gradient-2);}.cls-3{fill:url(#linear-gradient-3);}.cls-4{fill:url(#linear-gradient-4);}.cls-5{fill:url(#linear-gradient-5);}.cls-6{fill:url(#linear-gradient-6);}.cls-7{fill:url(#linear-gradient-7);}.cls-8{fill:url(#linear-gradient-8);}.cls-9{fill:url(#linear-gradient-9);}.cls-10{fill:url(#linear-gradient-10);}.cls-11{fill:url(#linear-gradient-11);}.cls-12{fill:url(#linear-gradient-12);}.cls-13{fill:url(#linear-gradient-13);}.cls-14{fill:url(#linear-gradient-14);}.cls-15{fill:url(#linear-gradient-15);}.cls-16{fill:url(#linear-gradient-16);}</style><linearGradient id="linear-gradient" x1="101.68" y1="168.86" x2="94.98" y2="15.93" gradientUnits="userSpaceOnUse"><stop offset="0" stop-color="#ff0"/><stop offset="0.29" stop-color="#fcee21"/><stop offset="1" stop-color="#fbb03b"/></linearGradient><linearGradient id="linear-gradient-2" x1="102.3" y1="168.84" x2="95.6" y2="15.91" xlink:href="#linear-gradient"/><linearGradient id="linear-gradient-3" x1="123.5" y1="167.91" x2="116.81" y2="14.98" xlink:href="#linear-gradient"/><linearGradient id="linear-gradient-4" x1="113.78" y1="168.33" x2="107.09" y2="15.4" xlink:href="#linear-gradient"/><linearGradient id="linear-gradient-5" x1="76.83" y1="169.95" x2="70.13" y2="17.02" xlink:href="#linear-gradient"/><linearGradient id="linear-gradient-6" x1="55.75" y1="170.88" x2="49.06" y2="17.95" xlink:href="#linear-gradient"/><linearGradient id="linear-gradient-7" x1="53.37" y1="170.98" x2="46.68" y2="18.05" xlink:href="#linear-gradient"/><linearGradient id="linear-gradient-8" x1="115.45" y1="168.26" x2="108.75" y2="15.33" xlink:href="#linear-gradient"/><linearGradient id="linear-gradient-9" x1="80.86" y1="169.78" x2="74.16" y2="16.85" xlink:href="#linear-gradient"/><linearGradient id="linear-gradient-10" x1="61.04" y1="170.64" x2="54.34" y2="17.71" xlink:href="#linear-gradient"/><linearGradient id="linear-gradient-11" x1="84.55" y1="169.61" x2="77.85" y2="16.68" xlink:href="#linear-gradient"/><linearGradient id="linear-gradient-12" x1="73.54" y1="170.1" x2="66.85" y2="17.17" xlink:href="#linear-gradient"/><linearGradient id="linear-gradient-13" x1="135.34" y1="167.39" x2="128.65" y2="14.46" xlink:href="#linear-gradient"/><linearGradient id="linear-gradient-14" x1="156.87" y1="166.45" x2="150.18" y2="13.52" xlink:href="#linear-gradient"/><linearGradient id="linear-gradient-15" x1="142.19" y1="167.09" x2="135.49" y2="14.16" xlink:href="#linear-gradient"/><linearGradient id="linear-gradient-16" x1="150.26" y1="166.74" x2="143.56" y2="13.81" xlink:href="#linear-gradient"/></defs><path class="cls-1" d="M100.5,40.68a3.76,3.76,0,0,0-.27.82L93,74l7.56-33Z"/><path class="cls-2" d="M112,126.54l-3-1.77-.55-.32c-1.11-.65-1.11-1.33,0-1.94l1.8-1L105,120.38l-2.25,1.23A2.34,2.34,0,0,0,101.4,124c0,.62,0,1.25,0,1.87l6.25,1.38,3.51.78,5.51,1.23ZM61,113l-.91-2.86a5.6,5.6,0,0,0-2.86,1,5.42,5.42,0,0,0-2.41,2.74s0,0,0,0l.31,1a8.67,8.67,0,0,0,.44,1.14,2.34,2.34,0,0,0,.76.21,6.44,6.44,0,0,0,5.07-2.31A3.75,3.75,0,0,1,61,113Zm-2.6,6.79a10.7,10.7,0,0,0,6.92,2.55,9.91,9.91,0,0,0,3.2-.51l5.55-2.54Q66.29,119.59,58.43,119.82Zm25.06-24a4.91,4.91,0,0,0-1.84.24l-1.32,5.79a6.38,6.38,0,0,0,4.79-3.63A1.66,1.66,0,0,0,83.49,95.85ZM84.8,111l1.65-7.44Q82.88,110.26,79.3,117l.33-.16a9.65,9.65,0,0,0,.62,1.13,10.26,10.26,0,0,0,1.56,1.9,5.48,5.48,0,0,1,.32-.77L85,113.71A4.78,4.78,0,0,1,84.8,111Zm73.61-64.52a11,11,0,0,0-6.84-4.79l-44.28-9.83a10.85,10.85,0,0,0-8.24,1.45,6.08,6.08,0,0,0-.78.55L96.8,29.49a10.44,10.44,0,0,0-5.24-6.28,10.64,10.64,0,0,0-8.13-.71l-42,13.16a10.7,10.7,0,0,0-7,13.4l17.39,55.41L53.31,109l4.15-7.32L56,97.12,40.36,47.22a4.57,4.57,0,0,1,3-5.7l42-13.15a4.07,4.07,0,0,1,1.35-.22,4.39,4.39,0,0,1,2.08.52A4.47,4.47,0,0,1,91,31.38l3.11,9.52L88.16,67.6l-4.8,21-.82,3.53,6.52-.36.78-3.55L93,74l7.22-32.46a3.5,3.5,0,0,1,.27-.83,4.45,4.45,0,0,1,1.85-2.17,4.87,4.87,0,0,1,3.6-.64l44.28,9.85a4.84,4.84,0,0,1,3,2.08,4.9,4.9,0,0,1,.64,3.62L141.53,109l-.8,3.55q2.82,1.51,5.62,3.08l.79-3.55,12.7-57.31A10.87,10.87,0,0,0,158.41,46.49Z"/><path class="cls-3" d="M109.62,75A6.89,6.89,0,0,1,121,76.15h0a7,7,0,0,1,8.72,1.26l.09.1a6.63,6.63,0,0,1-.81,9.11l-7.19,6.51a6.31,6.31,0,0,1-10.19-2.6l-3-8.7A7,7,0,0,1,109.62,75Z"/><path class="cls-4" d="M104.3,53.45a3.23,3.23,0,0,1,1.28-.92A3.17,3.17,0,0,1,109.44,54h0a3.16,3.16,0,0,1,4,.57l0,0a3,3,0,0,1-.36,4.14l-3.27,2.95a2.85,2.85,0,0,1-4.62-1.18l-1.38-3.94A3.2,3.2,0,0,1,104.3,53.45Z"/><polygon class="cls-5" points="81.11 68.12 79.18 85.94 63.99 76.41 65.92 58.59 81.11 68.12"/><polygon class="cls-6" points="54.49 55.3 52.83 62.58 47.01 57.91 48.66 50.63 54.49 55.3"/><path class="cls-7" d="M50.12,46.05a3.29,3.29,0,0,1,1.14,3.28l-.11.43-3.88-3.11-1.1,4.85h0a4,4,0,0,1-1.39-4l1.1-4.85Z"/><path class="cls-8" d="M113.44,47.83a3.25,3.25,0,0,1-1,3.3l-.34.29-1.25-4.81L107,49.84h0a4,4,0,0,1,1.26-4l3.79-3.23Z"/><g id="ZknSRc"><path class="cls-9" d="M107.7,127.28q-2.91,5.86-5.86,11.7c-1.08,2.16-2.17,4.34-3.26,6.5-.54,1.09-1.22,1.13-1.85.12q-7.24-11.5-14.48-23a3.29,3.29,0,0,1-.44-2.77,5.48,5.48,0,0,1,.32-.77L85,113.71q5-9.31,9.93-18.62c.2-.37.64-.9,1-.89A1.73,1.73,0,0,1,97,95q3.4,5.67,6.76,11.38h0Q107,112,110.3,117.53c.08.15.19.32.27.48a3.23,3.23,0,0,1,.14,3.25l4.38-2.37a3.62,3.62,0,0,0-.29-.64l-1.43-2.4c-2.41-4-4.8-8.08-7.2-12.11-2.85-4.82-5.73-9.64-8.55-14.48A2.38,2.38,0,0,0,95.15,88c-1.77.1-3.54.21-5.31.3l-6.48.38c-7.29.42-14.6.82-21.89,1.23a2.3,2.3,0,0,0-2.08,1.3l-3.36,6q-2.07,3.69-4.15,7.35-4.58,8.11-9.17,16.21a2.37,2.37,0,0,0,.1,2.79c2.66,3.94,5.27,7.92,7.9,11.87q5.37,8.1,10.74,16.2a2.29,2.29,0,0,0,2.16,1.16q16.9-.13,33.83-.2a2.27,2.27,0,0,0,2.24-1.4c.78-1.57,1.57-3.16,2.37-4.73q4.56-9.17,9.16-18.31c.26-.51.51-1,.77-1.52l-3-1.77C108.55,125.61,108.12,126.45,107.7,127.28Zm-46.81,5.48A6.18,6.18,0,0,1,55.64,130c-1.08-1.55-.32-2.95,1.56-3.06a6.53,6.53,0,0,1,5.33,2.77C63.56,131.35,62.84,132.76,60.89,132.76Zm10.28,12a2.06,2.06,0,0,1-1.89.93,6.55,6.55,0,0,1-5.3-2.83c-1-1.62-.28-3,1.63-3a6.28,6.28,0,0,1,5.27,2.74A1.94,1.94,0,0,1,71.17,144.77Zm1.5-5.78a6.16,6.16,0,0,1-5.32-2.8c-1.07-1.55-.29-3,1.6-3a6.26,6.26,0,0,1,5.12,2.49C75.26,137.57,74.56,139,72.67,139Zm3.9-6.67a6.17,6.17,0,0,1-5.32-2.8c-1.07-1.55-.29-3,1.59-3A6.27,6.27,0,0,1,78,129C79.17,130.9,78.46,132.31,76.57,132.32Zm1.34-13.44a10.7,10.7,0,0,1-1.78.38l-2,.06q-7.81.27-15.67.5l-9.43.29c-1.31,0-1.65-.53-1-1.65L53.31,109l4.15-7.32q1.88-3.33,3.77-6.66a3.32,3.32,0,0,1,2.87-1.82l18.44-1,6.52-.36,1.84-.1c1.22-.07,1.58.51,1,1.61-1.82,3.41-3.64,6.84-5.45,10.25Q82.88,110.26,79.3,117c-.1.18-.19.37-.29.54A11.14,11.14,0,0,1,77.91,118.88Zm6.88,26.57a6.1,6.1,0,0,1-5.3-2.81c-1.06-1.58-.29-3,1.61-3a6.2,6.2,0,0,1,5.11,2.48C87.41,144.06,86.7,145.43,84.79,145.45Z"/><path class="cls-10" d="M62.19,112.62a4.5,4.5,0,0,1-.77,1.3,6.44,6.44,0,0,1-5.07,2.31,2.34,2.34,0,0,1-.76-.21,1.6,1.6,0,0,1-.75-2.13s0,0,0,0a5.42,5.42,0,0,1,2.41-2.74,5.6,5.6,0,0,1,2.86-1,3.08,3.08,0,0,1,.43,0A1.68,1.68,0,0,1,62.19,112.62Z"/><path class="cls-11" d="M85.12,98.25a6.38,6.38,0,0,1-4.79,3.63v0a4.27,4.27,0,0,1-1.07,0,1.65,1.65,0,0,1-1.48-2.39,5.38,5.38,0,0,1,2.42-2.73,6.66,6.66,0,0,1,1.45-.7,4.91,4.91,0,0,1,1.84-.24A1.66,1.66,0,0,1,85.12,98.25Z"/><path class="cls-12" d="M74.41,105.31A6.25,6.25,0,0,1,68.54,109a1.63,1.63,0,0,1-1.47-2.38,6.32,6.32,0,0,1,5.71-3.67A1.66,1.66,0,0,1,74.41,105.31Z"/></g><g id="ZknSRc-2" data-name="ZknSRc"><path class="cls-13" d="M135,105.39a2.32,2.32,0,0,0-2.46,0q-9.59,5.23-19.18,10.45l-3.07,1.68c.08.15.19.32.27.48a3.23,3.23,0,0,1,.14,3.25l4.38-2.37,17-9.25a3.39,3.39,0,0,1,3.4,0l5.26,2.89.8-3.55Zm0,0a2.32,2.32,0,0,0-2.46,0q-9.59,5.23-19.18,10.45l-3.07,1.68c.08.15.19.32.27.48a3.23,3.23,0,0,1,.14,3.25l4.38-2.37,17-9.25a3.39,3.39,0,0,1,3.4,0l5.26,2.89.8-3.55ZM164.6,121.6q-8.74-4.77-17.46-9.56L141.53,109,135,105.39a2.32,2.32,0,0,0-2.46,0q-9.59,5.23-19.18,10.45l-3.07,1.68c-1.75,1-3.52,1.9-5.27,2.85l-2.25,1.23A2.34,2.34,0,0,0,101.4,124c0,.62,0,1.25,0,1.87.15,4.13.26,8.26.37,12.39,0,.23,0,.45,0,.69l.21,7.39q.17,5.67.31,11.34a2.33,2.33,0,0,0,1.21,2.13q14.43,8.85,28.81,17.74a2.28,2.28,0,0,0,2.64,0q14.5-8.9,29-17.73a2.31,2.31,0,0,0,1.2-2.14c.1-5.63.23-11.26.36-16.88s.24-11.21.4-16.81A2.36,2.36,0,0,0,164.6,121.6Zm-52.81,13a6.59,6.59,0,0,1,3,5.18c0,1.95-1.36,2.76-3,1.74a6.22,6.22,0,0,1-3-5.13C108.73,134.46,110.13,133.66,111.79,134.56Zm2.4,22.54a2.07,2.07,0,0,1-2.1-.2,6.59,6.59,0,0,1-3-5.21c0-1.9,1.35-2.7,3-1.7a6.29,6.29,0,0,1,3,5.12A1.93,1.93,0,0,1,114.19,157.1Zm4.32-4.11a6.2,6.2,0,0,1-3-5.18c-.08-1.88,1.35-2.71,3-1.73a6.29,6.29,0,0,1,3,4.82C121.48,153.17,120.13,154,118.51,153Zm6.88,11.9a6.12,6.12,0,0,1-3-5.2c-.08-1.89,1.34-2.69,3-1.69a6.25,6.25,0,0,1,3,4.82C128.35,165.1,127,165.89,125.39,164.89Zm-3.06-20.67c-.09-1.89,1.33-2.71,3-1.73a6.25,6.25,0,0,1,3,4.82c0,2.26-1.35,3.09-3,2.08A6.13,6.13,0,0,1,122.33,144.22Zm11.28-5.52a8.85,8.85,0,0,1-1.71-.61c-5.06-2.92-10.12-5.87-15.18-8.8L112,126.54l-3-1.77-.55-.32c-1.11-.65-1.11-1.33,0-1.94l1.8-1a4.67,4.67,0,0,1,.49-.27h0l4.38-2.37,17-9.25a3.39,3.39,0,0,1,3.4,0l5.26,2.89q2.82,1.51,5.62,3.08L159,122.52c1.08.59,1.08,1.27,0,1.9q-11.87,6.86-23.74,13.69A9.23,9.23,0,0,1,133.61,138.7Zm28.5,3.09c-.11,4.48-.21,9-.33,13.47a3.26,3.26,0,0,1-1.6,2.83q-11.53,7.09-23.11,14.13c-1,.63-1.63.31-1.63-.89q-.08-13.59-.11-27.18a3.32,3.32,0,0,1,1.77-3.06q11.76-6.78,23.52-13.56c.38-.21,1-.43,1.28-.26a1.66,1.66,0,0,1,.47,1.28c-.06,4.42-.17,8.82-.27,13.24ZM135,105.39a2.32,2.32,0,0,0-2.46,0q-9.59,5.23-19.18,10.45l-3.07,1.68c.08.15.19.32.27.48a3.23,3.23,0,0,1,.14,3.25l4.38-2.37,17-9.25a3.39,3.39,0,0,1,3.4,0l5.26,2.89.8-3.55Z"/><path class="cls-14" d="M152.55,137.62a6.15,6.15,0,0,1,3.34-4.9,1.67,1.67,0,0,1,2.61,1.37,6.27,6.27,0,0,1-3.6,6C153.51,140.54,152.54,139.7,152.55,137.62Z"/><path class="cls-15" d="M145,161.89a6.14,6.14,0,0,1-3.31,4.91,1.65,1.65,0,0,1-2.63-1.48,6.05,6.05,0,0,1,2.92-5.53,1.92,1.92,0,0,1,2.17-.23C144.9,160,145,160.77,145,161.89Z"/><path class="cls-16" d="M152.56,149.24a6.15,6.15,0,0,1-3.31,5c-1.38.72-2.47.07-2.66-1.46a6.31,6.31,0,0,1,3.5-5.83C151.52,146.37,152.55,147.2,152.56,149.24Z"/></g></svg>