<svg id="Layer_1" data-name="Layer 1" xmlns="http://www.w3.org/2000/svg" xmlns:xlink="http://www.w3.org/1999/xlink" viewBox="0 0 200 200"><defs><style>.cls-1{fill:url(#linear-gradient);}</style><linearGradient id="linear-gradient" x1="98.81" y1="186.46" x2="100.96" y2="12.14" gradientUnits="userSpaceOnUse"><stop offset="0" stop-color="#ff0"/><stop offset="0.29" stop-color="#fcee21"/><stop offset="1" stop-color="#fbb03b"/></linearGradient></defs><path class="cls-1" d="M177.31,91.76l-6,7.16a3.27,3.27,0,0,1-2,1.06H169a3,3,0,0,1-2-.67l-59-49.2a12.44,12.44,0,0,0-15.92,0L33,99.31a3.58,3.58,0,0,1-2.32.67,3.27,3.27,0,0,1-2-1.06l-6-7.16A3.17,3.17,0,0,1,22,89.48a2.81,2.81,0,0,1,1.06-2.08l69.58-58a12,12,0,0,1,14.7,0L131,49.18V30.31a3,3,0,0,1,.87-2.22,3,3,0,0,1,2.23-.87h18.58a3,3,0,0,1,3.09,3.09V69.79L176.92,87.4A2.82,2.82,0,0,1,178,89.48,3.17,3.17,0,0,1,177.31,91.76ZM153.9,171.23a6,6,0,0,1-4.36,1.84H112.39V139.3A12.39,12.39,0,0,0,100,126.92h0A12.38,12.38,0,0,0,87.62,139.3v33.77H50.46a6.27,6.27,0,0,1-6.19-6.19V98.43a1.37,1.37,0,0,1,0-.29.92.92,0,0,0,0-.29L92.09,58.51a12.43,12.43,0,0,1,15.82,0l47.73,39.34c.06.13.09.33.09,13.58Z"/></svg>