<svg id="Layer_1" data-name="Layer 1" xmlns="http://www.w3.org/2000/svg" xmlns:xlink="http://www.w3.org/1999/xlink" viewBox="0 0 200 200"><defs><style>.cls-1{fill:url(#linear-gradient);}</style><linearGradient id="linear-gradient" x1="106.92" y1="186.24" x2="99.11" y2="46.7" gradientUnits="userSpaceOnUse"><stop offset="0" stop-color="#ff0"/><stop offset="0.29" stop-color="#fcee21"/><stop offset="1" stop-color="#fbb03b"/></linearGradient></defs><g id="QuBTQO"><path class="cls-1" d="M145.13,22.5h1a8.83,8.83,0,0,1,1.72,3.17c.53,1.16,1.16,1.26,2,.31a5.47,5.47,0,0,0,.41-.54c1.08-1.51,2.16-1.56,3.3-.07.66.87,1.2,1.83,1.78,2.75.86,1.35,1.09,1.43,2.6.84,1.18-.47,1.66-.18,1.81,1.09a9.2,9.2,0,0,1-.42,3c-.29,1.2.06,1.58,1.22,1.42s1.58.33,1.52,1.42a6.55,6.55,0,0,1-.81,2.46c-.12.25-.32.47,0,.77a11.46,11.46,0,0,1,2.32,4.07v2.13c-.45-.07-.71-.43-1-.69s-.95-.94-1.53-1a10.38,10.38,0,0,1-4.3-.94c2,4.11,1,8.18-2.46,10-.81.42-.71.67-.29,1.3,3.08,4.6,5.31,9.6,5.59,15.16.2,4,.73,8,.64,12a58.74,58.74,0,0,1-3.62,19.79c-3,8-7.2,15.11-14.66,19.88a24.85,24.85,0,0,0-7.42,7.68,12.54,12.54,0,0,0-2.15,7.11c0,1.64,0,3.29,0,4.93,0,2.07.11,4.13-.05,6.2a6.78,6.78,0,0,1-3.64,5.59c-1.38.8-1.61,1.53-.71,2.84,2.87,4.21,5.86,8.33,9.09,12.28a3.05,3.05,0,0,0,2.33,1.18,11.94,11.94,0,0,1,4.19.58,1.47,1.47,0,0,0,.85,0,16.1,16.1,0,0,1,8.84-.25,14,14,0,0,1,4.66,2.76,1.15,1.15,0,0,1,.33,1.32,6.18,6.18,0,0,0-.92-.43c-.86-.24-1.85-.72-2.59-.12a3.6,3.6,0,0,1-3.45.65c-2.23-.62-4.39.09-6.59,0,.23,1.55,2.56,2.08,1.7,4.22a3.37,3.37,0,0,0-3.59-1.74,3.19,3.19,0,0,1-2.06-.73c-1.83-1.34-4-1.17-6.08-1.24-1.37,0-2.61-.4-3.17-1.55s-1.49-1.22-2.19-.12a2.58,2.58,0,0,1-3,1.25,2.3,2.3,0,0,0-2.14.27,3,3,0,0,1,.06-.81,3.41,3.41,0,0,1,2.31-2.24c1.52-.41,1.7-.77,1.53-2.28a4.24,4.24,0,0,1,.25-2,2.77,2.77,0,0,0-.24-2.41c-1.35-2.51-3.09-4.76-4.62-7.15-.92-1.44-1.79-2.61-3.72-2.08,0,0-.06,0-.1,0-.77,0-1.3-.12-.7-1a1.07,1.07,0,0,0,.15-.88,14.77,14.77,0,0,1-3.63.3c-.47,0-.68-.13-.36-.62a3.57,3.57,0,0,0,.57-1.93c0-.35-.09-.52-.52-.35a8.87,8.87,0,0,1-3.24.42c-.71,0-1,0-.72-.93.84-2.37,0-3.92-2.41-4.7l-.46-.15a21.75,21.75,0,0,0-8.84,0c-.45.07-.62.38-.81.74a12,12,0,0,1-4,4.8,13.58,13.58,0,0,0-5,5.87c-.47,1-1.07,2-1.57,3a14.8,14.8,0,0,0-1.35,3.61,2.81,2.81,0,0,0,.23,1.87,5.64,5.64,0,0,0,3.54,3.21c.67.21,1.53.4,1.67,1.15s.52.89,1,1.13a1.44,1.44,0,0,1,.9,2,5.45,5.45,0,0,0-3-.89,3.88,3.88,0,0,1-2.9-.79l-3.39-2.38c-.15,2.36-1.69,4.19-1.88,6.55a1.65,1.65,0,0,1-.9-1.19,8.5,8.5,0,0,0-1.4-3.44,3.18,3.18,0,0,1-.42-2.06,9.44,9.44,0,0,0-.12-2.12,6.21,6.21,0,0,1,.66-4.12c.56-1.07,1.15-2.12,1.75-3.23-1.49-.18-2.53-1.74-4.28-.9a2.47,2.47,0,0,1,1-1.33,6,6,0,0,1,3.17-1.06,4.88,4.88,0,0,0,2.7-.93A18.42,18.42,0,0,0,88.6,150c.28-.42.22-.7-.29-.87a2.79,2.79,0,0,1-1.21-.94c-.33-.38-.46-.69.2-.87a2.23,2.23,0,0,0,1.34-1,3.37,3.37,0,0,1-1.79-1c-.32-.37-.35-.62.14-.9s1.29-.76,1.18-1.6-.86-1.16-1.55-1.44a7.19,7.19,0,0,0-1.21-.32,18.33,18.33,0,0,1-2.65-.55c-1.07-.38-2-.86-1.93-2.28a7.64,7.64,0,0,0-2.2,1.66,11.93,11.93,0,0,1-.68-8.32,2,2,0,0,0-1.17.48c-.33.2-.43.89-.91.64s-.47-.74-.58-1.18a3.11,3.11,0,0,1,.35-2.15c.1-.23.39-.41.28-.74-.47.13-.73.58-1.23.64-.47-1.57.25-2.82,1.13-4.13a4,4,0,0,0-.86.13c-.85.36-.77-.17-.67-.68a2.14,2.14,0,0,1,1.26-1.73c1-.34,1.11-1,1.08-1.94a10.06,10.06,0,0,1-1.08.55c-.61.23-1.3.54-1.85.12a1.15,1.15,0,0,0-1.21-.15c-.58.17-1.19.27-1.79.4-.25.06-.55,0-.67.32-.38.94-1,.55-1.6.31a6.66,6.66,0,0,1-1-.62l-.25,1.27a2.78,2.78,0,0,1-1.67-2.17A6.42,6.42,0,0,0,63.79,117c-.85-.94-1-2.29-1.31-3.5-.2-.71-.45-1.57-1.41-1.42s-.85,1-.81,1.73v.09c0,.19,0,.41-.16.53s-.44,0-.59-.19a14.16,14.16,0,0,1-1-1.18c-.77-1-1.52-2.08-2.29-3.11-.15-.2-.33-.52-.6-.39s-.1.45,0,.68a16.48,16.48,0,0,0,.94,2.54,4.21,4.21,0,0,1,.53,1.89,7.64,7.64,0,0,1-3.72-2.91c.25,1.85.51,3.44.67,5a35.28,35.28,0,0,1,.3,7.82c0,.41-.08.92-.55,1s-.67-.32-.89-.62c-4.35-6-7.21-12.41-6-20.23a5.11,5.11,0,0,1-3.49,2.11c-.22,0-.49.12-.64-.07s.08-.41.23-.56a7.43,7.43,0,0,0,1.86-3.56,26.81,26.81,0,0,0,.26-11,18,18,0,0,1-.22-4.91c.12-1.14.38-2.26.6-3.47l-1.93,1.13c-2.2-6.09-1.58-11.74,2.29-17a1.42,1.42,0,0,0-.93.45A16.31,16.31,0,0,0,38,80.68c-.1,2-.06,4-.07,5.94A18,18,0,0,1,36.46,82V77.9c.36-1.24.4-2.53.69-3.78.48-2,1.42-3.86,1.9-5.88,1.37-5.82,4.28-10.7,9.39-14,8.28-5.41,19-4.43,26.68,2.4A16.73,16.73,0,0,0,79,58.44a21.17,21.17,0,0,0-5.12-4.52c6.07.71,9.75,4.47,12.32,9.88a8,8,0,0,0-.3-3.11,12.7,12.7,0,0,1,3.72,4.4,8.84,8.84,0,0,0-3-5.94,5.68,5.68,0,0,1,5.51,4.27,18.28,18.28,0,0,1,.1,8.16c-.13.79-.56,1.66-.36,2.35s1.39.76,2.1,1.17c.9.52,1.94,1,2.22,2,.41,1.49,1.48,1.9,2.78,2.14s2.51.11,3.76.22a5,5,0,0,0,5-2.72,44.84,44.84,0,0,0,2.87-6.12c.08-.18.27-.37,0-.62l-1.89.77.65-1.34c1.33-2.69,2.26-5.55,3.32-8.35a40.15,40.15,0,0,1,5-9.63l-1.74.91a2.33,2.33,0,0,1,.07-.56,13.91,13.91,0,0,1,.77-1.66,28.28,28.28,0,0,1,5.07-6l-1.6.73c3-4,7.4-5.41,11.93-6.63-.35-.39-.92-.28-1.4-.7,2.57-1.24,5.89-.78,7.64-3.6A7.63,7.63,0,0,1,136,31.61a3.45,3.45,0,0,1,.13-3.92c.82-1.17,2-1,3.15-.76,2.44.52,3.43,0,4.67-2.14A11.7,11.7,0,0,1,145.13,22.5ZM65.11,58A17.55,17.55,0,0,0,51,56.62c-4.36,1.46-9.6,6.47-10,9.58l.27-.3a20.25,20.25,0,0,1,13-7.38A42.4,42.4,0,0,1,65.11,58Z"/></g></svg>