<svg id="Layer_1" data-name="Layer 1" xmlns="http://www.w3.org/2000/svg" xmlns:xlink="http://www.w3.org/1999/xlink" viewBox="0 0 200 200"><defs><style>.cls-1{fill:url(#linear-gradient);}.cls-2{fill:url(#linear-gradient-2);}.cls-3{fill:url(#linear-gradient-3);}</style><linearGradient id="linear-gradient" x1="108.9" y1="186.16" x2="93.27" y2="34.35" gradientUnits="userSpaceOnUse"><stop offset="0" stop-color="#ff0"/><stop offset="0.29" stop-color="#fcee21"/><stop offset="1" stop-color="#fbb03b"/></linearGradient><linearGradient id="linear-gradient-2" x1="98.3" y1="187.25" x2="82.67" y2="35.44" xlink:href="#linear-gradient"/><linearGradient id="linear-gradient-3" x1="101.63" y1="186.91" x2="86.01" y2="35.1" xlink:href="#linear-gradient"/></defs><path class="cls-1" d="M99.07,22.5a68.28,68.28,0,1,0,68.28,68.28A68.35,68.35,0,0,0,99.07,22.5ZM90.83,145a29.73,29.73,0,1,1,29.73-29.73A29.77,29.77,0,0,1,90.83,145Zm22,3.23A39.62,39.62,0,1,0,53.28,128a59,59,0,1,1,59.57,20.19Z"/><path class="cls-2" d="M111.27,117.4l0-.11c-2-5.13-6.25-6.78-11-6.88,2.45-2.72,4.21-6.57,2.5-11l0-.12c-2.55-6.62-11-8.73-20.51-5.05s-14.38,10.9-11.82,17.51l0,.13c1.71,4.42,5.59,6.1,9.25,6.48-3.68,3.46-5.42,7.56-3.53,12.45l0,.13c2.7,7,11.72,9.09,22.13,5.07S114,124.42,111.27,117.4ZM83,108.93l0-.11a4.52,4.52,0,0,1,8.4-3.24l0,.11a4.51,4.51,0,0,1-8.4,3.24Zm11.68,17.76c-3.1,1.2-5.44-.21-6.21-2.22l0-.11c-.84-2.19.34-4.63,3.16-5.72s5.32-.06,6.17,2.12l0,.12C98.55,122.83,97.8,125.5,94.69,126.69Z"/><path class="cls-3" d="M170.12,171a6.45,6.45,0,0,1-6.46,6.46H36.34a6.46,6.46,0,1,1,0-12.91H163.66A6.45,6.45,0,0,1,170.12,171Z"/></svg>